<svg width="253" height="209" viewBox="0 0 253 209" fill="none" xmlns="http://www.w3.org/2000/svg">
<path d="M206.683 64.4777C206.683 66.3043 205.203 67.785 203.377 67.785C201.55 67.785 200.069 66.3043 200.069 64.4777C200.069 62.6526 201.55 61.1718 203.377 61.1718C205.203 61.1718 206.683 62.6526 206.683 64.4777Z" fill="url(#paint0_diamond_15_42)"/>
<path d="M200.303 48.7978C200.348 48.7891 204.664 48.0857 207.65 50.1885C207.939 50.3919 208.272 50.4907 208.6 50.4907C209.119 50.4907 209.632 50.248 209.953 49.7903C210.479 49.0448 210.3 48.0131 209.555 47.4856C205.428 44.5765 199.963 45.5007 199.732 45.5413C198.835 45.6997 198.237 46.5527 198.392 47.4507C198.547 48.3473 199.408 48.9533 200.303 48.7978H200.303Z" fill="url(#paint1_diamond_15_42)"/>
<path d="M173.615 64.4777C173.615 66.3043 172.135 67.785 170.308 67.785C168.481 67.785 167.002 66.3043 167.002 64.4777C167.002 62.6526 168.481 61.1718 170.308 61.1718C172.135 61.1718 173.615 62.6526 173.615 64.4777Z" fill="url(#paint2_diamond_15_42)"/>
<path d="M164.702 50.4904C165.03 50.4904 165.363 50.3916 165.652 50.1881C168.618 48.0985 172.898 48.7815 172.998 48.7975C173.895 48.9486 174.752 48.3543 174.91 47.4548C175.069 46.5553 174.469 45.6979 173.569 45.5396C173.338 45.5003 167.874 44.5761 163.746 47.4839C163 48.0099 162.82 49.0416 163.348 49.7885C163.672 50.2463 164.183 50.4904 164.702 50.4904H164.702Z" fill="url(#paint3_diamond_15_42)"/>
<path d="M192.063 80.2469C192.942 79.9984 193.452 79.0844 193.202 78.2067C192.954 77.329 192.035 76.816 191.162 77.0674C188.164 77.9175 185.14 77.9175 182.142 77.0674C181.268 76.8175 180.351 77.329 180.102 78.2067C179.852 79.0844 180.364 79.9984 181.241 80.2469C183.035 80.757 184.854 81.0127 186.651 81.0127C188.45 81.0127 190.273 80.757 192.063 80.2469H192.063Z" fill="url(#paint4_diamond_15_42)"/>
<path d="M252.722 207.029C252.751 206.9 252.758 206.775 252.756 206.643C252.756 206.582 252.78 206.523 252.772 206.462C245.656 149.524 216.059 130.972 198.226 124.945V113.605C209.034 109.659 217.554 101.066 221.136 95.0922C222.31 93.1349 223.369 91.3607 224.308 89.5412C228.951 89.4976 233.174 85.9723 235.285 80.2296C237.742 73.5496 234.137 66.8144 229.032 64.1479C229.034 63.882 229.041 63.6335 229.041 63.3632C233.361 51.9881 232.134 32.032 222.538 17.9231C216.977 9.74647 206.237 0 186.648 0C181.712 0 177.037 0.646652 172.752 1.91961C172.741 1.92252 172.733 1.93123 172.723 1.93414C172.713 1.93705 172.703 1.93414 172.696 1.93705C160.601 6.02461 150.168 0.27464 150.063 0.215083C149.57 -0.0624648 148.966 -0.0726391 148.467 0.199098C147.968 0.466475 147.641 0.970706 147.6 1.5389C147.296 5.82995 149.531 10.0079 153.826 13.4184C151.959 13.7163 150.039 13.8587 149.15 13.8936C148.616 13.9154 148.126 14.1929 147.832 14.6391C147.54 15.0852 147.481 15.6461 147.675 16.146C147.705 16.2215 148.342 17.8345 149.611 20.0434C140.997 34.2435 140 53.0471 144.08 63.5417C144.08 63.7045 144.085 63.8512 144.085 64.0125C139.041 66.6717 135.521 73.4536 138.017 80.2337C140.125 85.9663 144.332 89.4873 148.956 89.5263C149.848 91.2207 150.845 92.8933 151.946 94.7258L152.167 95.0964C155.752 101.07 164.27 109.663 175.077 113.609V124.95C157.244 130.974 127.647 149.524 120.531 206.463C120.522 206.522 120.547 206.579 120.545 206.639C120.544 206.769 120.55 206.891 120.579 207.019C120.6 207.114 120.628 207.2 120.664 207.288C120.712 207.406 120.773 207.512 120.847 207.615C120.881 207.662 120.893 207.72 120.93 207.763C120.962 207.8 121.01 207.814 121.042 207.846C121.08 207.883 121.102 207.932 121.145 207.967C121.218 208.023 121.301 208.051 121.378 208.095C121.437 208.128 121.49 208.166 121.555 208.191C121.754 208.27 121.961 208.323 122.168 208.323H251.131C251.338 208.323 251.542 208.272 251.741 208.192C251.803 208.167 251.856 208.132 251.914 208.099C251.988 208.06 252.066 208.035 252.135 207.981C252.183 207.945 252.206 207.893 252.247 207.852C252.283 207.817 252.334 207.801 252.367 207.763C252.402 207.724 252.414 207.669 252.444 207.627C252.521 207.521 252.581 207.413 252.632 207.294C252.672 207.205 252.701 207.123 252.723 207.03L252.722 207.029ZM137.561 194.74L138.745 205.014H125.664C129.859 200.098 133.721 196.763 137.561 194.74H137.561ZM124.629 201.207C126.764 187.8 130.212 176.753 134.447 167.665L137.165 191.273C133.025 193.209 128.946 196.433 124.629 201.207H124.629ZM137.315 163.679H236.004L231.563 205.012H142.074L137.315 163.679ZM176.413 141.523C179.817 143.384 183.232 144.333 186.651 144.333C190.075 144.333 193.503 143.381 196.916 141.513L190.46 160.371H182.901L176.413 141.523ZM235.747 197.003C239.926 198.224 243.895 200.911 247.593 205.014H234.887L235.747 197.003ZM236.105 193.684L238.892 167.74C243.126 176.851 246.573 187.926 248.699 201.368C244.791 197.429 240.573 194.864 236.105 193.684H236.105ZM235.073 160.373H193.959L196.618 152.606L198.996 154.547C199.304 154.797 199.671 154.92 200.04 154.92C200.52 154.92 200.997 154.714 201.322 154.313C201.899 153.604 201.793 152.562 201.085 151.987L197.759 149.271L198.984 145.692L202.249 147.6C202.512 147.754 202.798 147.826 203.08 147.826C203.649 147.826 204.201 147.534 204.509 147.008C204.969 146.218 204.704 145.206 203.916 144.747L200.075 142.502L201.807 137.441L205.112 139.522C205.387 139.693 205.69 139.776 205.991 139.776C206.54 139.776 207.078 139.503 207.392 139.004C207.879 138.231 207.646 137.211 206.875 136.724L202.906 134.225L204.054 130.873C213.982 135.585 225.78 144.292 235.074 160.373L235.073 160.373ZM232.183 79.09C230.847 82.7243 228.531 85.205 225.934 85.9765C227.618 81.7015 228.67 76.489 228.957 68.0374C231.906 70.4177 233.749 74.831 232.183 79.09H232.183ZM158.381 15.671C158.397 15.6637 158.407 15.6506 158.422 15.6434C158.595 15.5678 158.757 15.4646 158.9 15.3295C158.926 15.3048 158.945 15.2772 158.969 15.2525C159.026 15.1929 159.086 15.1377 159.132 15.0694C159.164 15.0229 159.167 14.9706 159.193 14.9241C159.248 14.8253 159.288 14.7279 159.321 14.6189C159.353 14.5157 159.376 14.4169 159.388 14.3138C159.4 14.2106 159.398 14.1132 159.389 14.01C159.379 13.8938 159.362 13.7863 159.328 13.6758C159.314 13.6264 159.32 13.5756 159.301 13.5247C159.28 13.4753 159.241 13.4433 159.218 13.3968C159.167 13.2966 159.108 13.2065 159.035 13.1178C158.964 13.0306 158.891 12.9522 158.805 12.8824C158.765 12.849 158.741 12.801 158.698 12.772C158.657 12.7444 158.564 12.6862 158.423 12.6049C156.418 11.4293 152.215 8.52585 151.136 4.3438C155.332 6.00911 163.925 8.37482 173.687 5.09506H173.694C177.671 3.90785 182.029 3.3077 186.647 3.3077C201.008 3.3077 212.474 9.0038 219.805 19.7833C227.569 31.1964 229.512 46.6445 227.309 57.456C223.429 46.6825 217.246 37.0394 208.579 28.1173C208.998 27.1611 209.602 25.1907 208.786 22.9413C207.764 20.1309 204.941 17.9453 200.393 16.4442C199.524 16.1521 198.591 16.6288 198.304 17.4963C198.018 18.3624 198.489 19.2982 199.356 19.5845C202.815 20.7252 204.996 22.264 205.664 24.0295C206.257 25.6018 205.486 26.9503 205.439 27.0302C200.866 34.9107 176.295 33.3457 165.248 29.5384C158.213 27.1131 154.052 20.9968 152.943 19.1803C152.459 18.3855 152.052 17.6472 151.73 17.0195C153.713 16.8248 156.486 16.4324 158.381 15.6724L158.381 15.671ZM151.622 23.1036C153.578 25.7352 156.887 29.2982 161.662 31.6072C155.076 37.7322 149.846 46.2954 145.813 57.6734C143.87 48.0259 145.37 34.2722 151.622 23.1032V23.1036ZM141.119 79.09C139.527 74.7595 141.283 70.3174 144.158 67.9225C144.441 76.438 145.524 81.6341 147.267 85.9341C144.714 85.1407 142.442 82.6834 141.119 79.09H141.119ZM155.001 93.389L154.777 93.0185C150.03 85.1105 147.408 80.7279 147.384 63.4763C151.656 49.5042 157.457 39.5081 165.092 32.9475C170.253 34.5663 178.719 35.9875 186.918 35.9875C194.895 35.9875 202.568 34.6346 206.581 30.823C215.962 40.5895 222.254 51.2452 225.732 63.3527C225.705 81.0273 223.069 85.4374 218.3 93.389C213.882 100.752 201.386 112.428 186.65 112.428C171.914 112.428 159.419 100.752 155.001 93.389L155.001 93.389ZM186.65 115.734C189.497 115.734 192.262 115.323 194.917 114.625V126.137H194.94C194.94 126.837 195.368 127.489 196.07 127.712C197.624 128.206 199.284 128.803 201.023 129.521L198.643 136.474C190.574 142.502 182.721 142.502 174.672 136.471L172.28 129.521C174.018 128.803 175.677 128.206 177.232 127.713C177.935 127.489 178.361 126.838 178.361 126.138H178.384V114.626C181.041 115.322 183.803 115.733 186.65 115.733L186.65 115.734ZM169.249 130.872L170.026 133.129L166.194 135.887C165.453 136.419 165.285 137.452 165.818 138.195C166.139 138.641 166.645 138.881 167.159 138.881C167.494 138.881 167.831 138.777 168.123 138.57L171.148 136.394L172.585 140.568L169.152 143.433C168.451 144.019 168.357 145.061 168.942 145.761C169.269 146.154 169.739 146.354 170.214 146.354C170.587 146.354 170.962 146.229 171.272 145.971L173.739 143.912L175.253 148.309L171.907 152.004C171.293 152.68 171.346 153.724 172.023 154.339C172.338 154.625 172.738 154.768 173.132 154.768C173.581 154.768 174.031 154.586 174.358 154.224L176.483 151.88L179.405 160.374H138.232C147.527 144.291 159.325 135.585 169.25 130.872L169.249 130.872Z" fill="url(#paint5_diamond_15_42)"/>
<path d="M186.646 177.046C181.7 177.046 177.678 181.069 177.678 186.017C177.678 190.964 181.701 194.989 186.646 194.989C191.591 194.989 195.615 190.965 195.615 186.017C195.615 181.069 191.591 177.046 186.646 177.046V177.046ZM186.646 191.682C183.524 191.682 180.983 189.14 180.983 186.017C180.983 182.894 183.525 180.353 186.646 180.353C189.768 180.353 192.309 182.894 192.309 186.017C192.309 189.14 189.768 191.682 186.646 191.682Z" fill="url(#paint6_diamond_15_42)"/>
<path d="M181.048 72.885V64.7083C184.217 62.9965 189.261 63.0082 192.62 64.7345V72.8851C192.62 73.7991 193.362 74.5387 194.274 74.5387H211.934C212.847 74.5387 213.588 73.7991 213.588 72.8851V56.0709C213.588 55.1569 212.847 54.4173 211.934 54.4173H194.274C193.362 54.4173 192.62 55.1569 192.62 56.0709V61.1335C188.998 59.8025 184.57 59.7923 181.048 61.0972V56.0707C181.048 55.1567 180.307 54.417 179.394 54.417H161.736C160.823 54.417 160.082 55.1567 160.082 56.0707V72.8848C160.082 73.7989 160.823 74.5385 161.736 74.5385H179.396C180.307 74.5385 181.048 73.7989 181.048 72.8848L181.048 72.885ZM195.928 57.7244H210.281V71.2325H195.928V57.7244ZM177.742 71.2314H163.389V57.7233H177.742V71.2314Z" fill="url(#paint7_diamond_15_42)"/>
<path d="M80.9595 66.9456C82.2034 66.9456 83.2961 66.3295 83.9704 65.3908C84.0067 65.3908 84.0387 65.3951 84.075 65.3951C85.2913 65.3951 86.5802 65.2004 87.7311 64.7092C88.571 64.3489 88.9619 63.3767 88.6 62.5383C88.2411 61.6998 87.2675 61.3118 86.4291 61.6693C85.8202 61.9294 85.1343 62.0399 84.4688 62.0689C84.4615 62.05 84.4586 62.0326 84.4528 62.0166C84.8582 61.7332 85.2346 61.4092 85.5499 60.9979C86.105 60.2743 85.9699 59.2353 85.2462 58.6802C84.5226 58.1236 83.4836 58.2602 82.9285 58.9839C82.6146 59.3922 82.2004 59.5506 81.7601 59.6116C81.5015 59.5535 81.2355 59.5186 80.9595 59.5186C78.9091 59.5186 77.2467 61.1825 77.2467 63.2314C77.2453 65.2818 78.9091 66.9456 80.9595 66.9456H80.9595Z" fill="url(#paint8_diamond_15_42)"/>
<path d="M44.4808 64.7025C45.5532 65.1821 46.8466 65.3724 48.0948 65.3724C48.1442 65.3724 48.1907 65.3652 48.2401 65.3637C48.9114 66.3199 50.0173 66.9476 51.2757 66.9476C53.3261 66.9476 54.9885 65.2838 54.9885 63.2348C54.9885 61.1845 53.3261 59.5206 51.2742 59.5206C50.9982 59.5206 50.7322 59.5555 50.4736 59.6122C50.0318 59.5526 49.6191 59.3927 49.3053 58.9844C48.7487 58.2608 47.7083 58.1242 46.9875 58.6807C46.2639 59.2358 46.1258 60.2748 46.6838 60.9985C46.9991 61.4097 47.377 61.7323 47.7838 62.0157C47.7795 62.0287 47.7751 62.0418 47.7722 62.0549C47.0718 62.0302 46.3714 61.9241 45.8293 61.6815C44.9981 61.3051 44.0173 61.6844 43.6467 62.5185C43.2718 63.3511 43.6467 64.3305 44.4808 64.7025L44.4808 64.7025Z" fill="url(#paint9_diamond_15_42)"/>
<path d="M79.7728 43.8406C79.8178 43.8319 84.1337 43.1256 87.1198 45.2312C87.409 45.4347 87.7418 45.5335 88.0702 45.5335C88.5889 45.5335 89.1019 45.2908 89.423 44.8331C89.9491 44.0876 89.7703 43.0559 89.0249 42.5284C84.8979 39.6192 79.4328 40.5434 79.2018 40.5841C78.3052 40.7425 77.7065 41.5955 77.862 42.4935C78.0189 43.3916 78.8777 44.0004 79.7728 43.8406H79.7728Z" fill="url(#paint10_diamond_15_42)"/>
<path d="M44.1721 45.5295C44.5005 45.5295 44.8332 45.4307 45.1224 45.2272C48.0883 43.1391 52.3679 43.8206 52.468 43.8366C53.3646 43.9892 54.2219 43.3934 54.3803 42.4939C54.5387 41.5944 53.9385 40.737 53.039 40.5786C52.808 40.5394 47.3441 39.6152 43.2159 42.523C42.4705 43.049 42.2903 44.0807 42.8178 44.8276C43.1418 45.2868 43.6533 45.5295 44.1721 45.5295H44.1721Z" fill="url(#paint11_diamond_15_42)"/>
<path d="M70.6326 77.0679C67.6348 77.918 64.6106 77.918 61.613 77.0679C60.7382 76.8179 59.8213 77.3294 59.5728 78.2071C59.3229 79.0848 59.8344 79.9988 60.7121 80.2473C62.5052 80.7588 64.3245 81.0146 66.1221 81.0146C67.9211 81.0146 69.7419 80.7588 71.5321 80.2488C72.4113 80.0003 72.9213 79.0863 72.6714 78.2086C72.4244 77.3294 71.506 76.8179 70.6326 77.0679H70.6326Z" fill="url(#paint12_diamond_15_42)"/>
<path d="M57.1476 186.02C57.1476 190.967 61.1712 194.992 66.1162 194.992C71.0612 194.992 75.0848 190.968 75.0848 186.02C75.0848 181.073 71.0612 177.048 66.1162 177.048C61.1727 177.048 57.1476 181.072 57.1476 186.02ZM71.7822 186.02C71.7822 189.143 69.2407 191.684 66.1192 191.684C62.9978 191.684 60.4562 189.143 60.4562 186.02C60.4562 182.897 62.9977 180.356 66.1192 180.356C69.2405 180.354 71.7822 182.896 71.7822 186.02V186.02Z" fill="url(#paint13_diamond_15_42)"/>
<path d="M94.9988 51.5671H73.7467C72.8341 51.5671 72.093 52.3067 72.093 53.2207V61.1983C68.2015 59.7379 64.3275 59.7336 60.5204 61.1765V53.2205C60.5204 52.3065 59.7793 51.5668 58.8667 51.5668H37.2355C36.323 51.5668 35.5818 52.3065 35.5818 53.2205V72.8857C35.5818 73.7997 36.323 74.5393 37.2355 74.5393H58.8667C59.7793 74.5393 60.5204 73.7997 60.5204 72.8857L60.5189 64.7757C64.3394 62.952 68.1465 62.9549 72.0916 64.7887V72.8857C72.0916 73.7997 72.8327 74.5394 73.7452 74.5394H94.9974C95.9099 74.5394 96.651 73.7997 96.651 72.8857V53.2206C96.651 52.308 95.9114 51.5669 94.9988 51.5669V51.5671ZM57.2145 71.2322H38.8904V54.8742H57.2145V71.2322ZM93.3468 71.2322H75.4006V54.8742H93.3453L93.3468 71.2322Z" fill="url(#paint14_diamond_15_42)"/>
<path d="M132.586 124.204C127.82 121.477 125.114 106.967 127.23 95.4481C131.72 70.3584 130.132 20.3557 118.819 5.32302C116.783 2.61875 114.476 1.11493 111.956 0.854527C107.754 0.425869 104.564 1.1684 102.489 3.08219C101.683 3.8262 101.171 4.63415 100.834 5.38541C99.2849 4.56875 97.701 4.2142 96.1025 4.3319C93.7513 4.50337 91.9465 5.67605 90.8829 6.57552C84.0228 2.24504 75.6672 0 66.1228 0C50.7252 0 38.3855 5.94758 30.4351 17.1966C30.1081 17.6616 29.816 18.144 29.5079 18.6206C29.4411 18.7006 29.3917 18.7848 29.3437 18.872C20.2821 33.0167 19.4901 51.7057 23.5517 63.5012C23.5517 63.677 23.556 63.834 23.556 64.0069C18.512 66.6661 14.9925 73.448 17.4879 80.2281C19.5964 85.9606 23.8034 89.4816 28.427 89.5207C29.3192 91.2151 30.3161 92.8876 31.4176 94.7202L31.6385 95.0907C35.2233 101.065 43.7416 109.657 54.5486 113.604V124.944C36.717 130.973 7.11828 149.522 0.00186865 206.461C-0.00685035 206.52 0.017853 206.577 0.0164 206.637C0.014947 206.768 0.0207594 206.89 0.0498221 207.017C0.0716193 207.112 0.0992273 207.198 0.135557 207.286C0.183512 207.404 0.244542 207.51 0.318652 207.613C0.352074 207.66 0.363697 207.718 0.401481 207.761C0.43345 207.798 0.481403 207.812 0.513372 207.844C0.551153 207.881 0.572954 207.93 0.616545 207.965C0.689201 208.022 0.772031 208.049 0.849047 208.093C0.908627 208.126 0.960939 208.164 1.02633 208.189C1.22541 208.269 1.43173 208.321 1.63954 208.321H130.602C130.81 208.321 131.013 208.27 131.212 208.19C131.275 208.165 131.327 208.131 131.385 208.097C131.459 208.058 131.538 208.033 131.606 207.979C131.654 207.943 131.677 207.891 131.718 207.85C131.754 207.815 131.805 207.799 131.838 207.761C131.873 207.722 131.885 207.667 131.915 207.625C131.992 207.519 132.052 207.411 132.103 207.292C132.139 207.205 132.171 207.122 132.19 207.029C132.219 206.9 132.226 206.775 132.225 206.643C132.225 206.582 132.248 206.523 132.241 206.462C125.125 149.524 95.5275 130.972 77.6941 124.945V113.605C83.8961 111.34 89.3352 107.547 93.5303 103.596C94.514 112.255 99.3037 120.255 106.591 125.088C111.087 128.068 116.129 129.576 121.257 129.576C124.999 129.576 128.785 128.773 132.434 127.151C133.002 126.898 133.381 126.346 133.413 125.724C133.451 125.099 133.128 124.512 132.588 124.201L132.586 124.204ZM96.3417 7.62981C97.9664 7.52373 99.6578 8.24447 101.365 9.81243C102.882 11.2074 103.68 12.7405 103.732 14.3695C103.78 15.8459 103.23 17.2089 102.65 18.229C102.384 17.825 102.137 17.4123 101.858 17.0185C99.5285 13.7374 96.8009 10.924 93.7304 8.57146C94.4061 8.12681 95.2925 7.70685 96.3416 7.62985L96.3417 7.62981ZM66.1225 3.30975C80.4795 3.30975 91.9056 8.71234 99.1608 18.9324C107.25 30.3235 108.964 45.7616 106.697 57.2747C102.813 46.5781 96.6628 36.992 88.0472 28.1234C88.4657 27.1702 89.0746 25.1954 88.255 22.9414C87.2334 20.1311 84.41 17.9454 79.8619 16.4444C78.9929 16.1523 78.06 16.629 77.7737 17.4965C77.4874 18.3625 77.9583 19.2984 78.8258 19.5846C82.2842 20.7254 84.4653 22.2642 85.1338 24.0297C85.7267 25.602 84.9551 26.9505 84.9086 27.0304C80.3356 34.9109 55.7644 33.3459 44.7174 29.5385C39.5298 27.7497 35.2633 23.434 32.7583 19.6879C32.8876 19.4975 33.0009 19.2956 33.1346 19.1096C40.4396 8.77346 51.8452 3.31097 66.1223 3.31097L66.1225 3.30975ZM108.43 68.0382C111.38 70.4213 113.221 74.8332 111.656 79.0923C110.321 82.7266 108.005 85.2073 105.408 85.9788C107.091 81.7023 108.144 76.4912 108.43 68.0382H108.43ZM30.8715 22.758C32.8187 25.3824 36.2715 29.2116 41.1176 31.6006C34.5871 37.6761 29.401 46.1756 25.3815 57.4168C23.4721 47.3087 24.7479 33.7132 30.8715 22.758V22.758ZM20.5934 79.0941C19.0008 74.7637 20.7576 70.3216 23.6319 67.9266C23.9153 76.4421 24.9979 81.6383 26.7417 85.9382C24.1885 85.1448 21.9157 82.6876 20.5936 79.0941H20.5934ZM69.9359 160.377H62.3768L55.8872 141.528C59.2919 143.39 62.7067 144.338 66.1258 144.338C69.5494 144.338 72.9774 143.387 76.3909 141.518L69.9359 160.377ZM115.22 197.007C119.399 198.228 123.367 200.915 127.066 205.019H114.36L115.22 197.007ZM115.577 193.689L118.364 167.744C122.599 176.855 126.045 187.93 128.171 201.373C124.264 197.433 120.047 194.869 115.577 193.689H115.577ZM111.035 205.017H21.5457L16.7867 163.684H115.475L111.035 205.017ZM17.0333 194.744L18.2176 205.017H5.13654C9.3331 200.101 13.1941 196.766 17.0332 194.744H17.0333ZM4.10178 201.21C6.23644 187.803 9.6848 176.757 13.9193 167.669L16.6381 191.276C12.4981 193.212 8.42058 196.436 4.102 201.21H4.10178ZM48.7235 130.875L49.5009 133.132L45.6689 135.89C44.9278 136.422 44.7593 137.455 45.2926 138.198C45.6137 138.644 46.1194 138.884 46.6338 138.884C46.968 138.884 47.3052 138.781 47.5972 138.573L50.6227 136.397L52.0598 140.571L48.626 143.436C47.9256 144.022 47.8312 145.064 48.4168 145.764C48.7437 146.157 49.2131 146.357 49.6883 146.357C50.0618 146.357 50.4367 146.232 50.7462 145.974L53.2136 143.915L54.7278 148.312L51.3812 152.007C50.768 152.683 50.8203 153.727 51.4975 154.342C51.8128 154.628 52.2124 154.771 52.6062 154.771C53.0552 154.771 53.5057 154.589 53.8327 154.227L55.9571 151.883L58.8794 160.377H17.7061C27.0017 144.294 38.7998 135.588 48.7248 130.875L48.7235 130.875ZM114.546 160.377H73.4319L76.0911 152.61L78.4685 154.551C78.7765 154.801 79.1442 154.925 79.5133 154.925C79.9928 154.925 80.4694 154.719 80.7949 154.318C81.3718 153.608 81.2657 152.567 80.5581 151.991L77.2319 149.275L78.4569 145.696L81.722 147.604C81.9851 147.758 82.2713 147.831 82.5532 147.831C83.1214 147.831 83.6736 147.539 83.9817 147.013C84.4423 146.222 84.1764 145.211 83.3888 144.752L79.5482 142.506L81.2803 137.445L84.5847 139.526C84.8594 139.698 85.1631 139.781 85.4639 139.781C86.0132 139.781 86.5509 139.507 86.8647 139.009C87.3515 138.236 87.119 137.216 86.3474 136.729L82.3789 134.23L83.5268 130.877C93.456 135.59 105.253 144.297 114.547 160.377L114.546 160.377ZM74.414 126.14C74.414 126.84 74.8412 127.493 75.5431 127.715C77.098 128.209 78.7574 128.806 80.4967 129.524L78.1165 136.477C70.0474 142.505 62.1944 142.505 54.1454 136.474L51.7535 129.524C53.4915 128.806 55.1509 128.209 56.7056 127.716C57.4089 127.492 57.8347 126.841 57.8347 126.141H57.858V114.629C60.5128 115.325 63.278 115.738 66.125 115.738C68.9717 115.738 71.737 115.327 74.392 114.629V126.141H74.4138L74.414 126.14ZM66.1239 112.431C51.3878 112.431 38.8922 100.753 34.4747 93.3917L34.2509 93.0212C29.5034 85.1131 26.8819 80.7306 26.8573 63.479C31.1294 49.5069 36.9304 39.5108 44.5654 32.9502C49.727 34.569 58.193 35.9902 66.3916 35.9902C74.3692 35.9902 82.0417 34.6373 86.0553 30.8256C95.4353 40.5922 101.727 51.2478 105.206 63.3554C105.178 81.03 102.542 85.4401 97.7734 93.3917C93.3558 100.755 80.8602 112.431 66.1241 112.431L66.1239 112.431ZM108.424 122.332C101.153 117.511 96.6888 109.134 96.6642 100.365C98.299 98.514 99.6432 96.7063 100.611 95.0948C101.785 93.1374 102.844 91.3632 103.783 89.5437C108.426 89.5001 112.649 85.9748 114.76 80.2321C117.217 73.5521 113.612 66.817 108.507 64.1505C108.509 63.8773 108.516 63.6244 108.516 63.3454C112.332 52.1128 111.945 34.9367 104.54 21.3649C105.541 20.0353 107.132 17.4328 107.044 14.2968C106.971 11.7422 105.82 9.42175 103.626 7.3988C103.754 6.88584 104.044 6.15054 104.733 5.51554C106.058 4.29343 108.439 3.81537 111.618 4.14958C113.186 4.31233 114.719 5.37603 116.18 7.31595C125.946 20.2925 128.852 67.6399 123.979 94.8631C122.045 105.407 123.719 119.222 128.632 125.08C121.747 127.326 114.506 126.369 108.424 122.335L108.424 122.332Z" fill="url(#paint15_diamond_15_42)"/>
<defs>
<radialGradient id="paint0_diamond_15_42" cx="0" cy="0" r="1" gradientUnits="userSpaceOnUse" gradientTransform="translate(200.118 64.6733) rotate(-6.56718) scale(9.08655 13.3218)">
<stop stop-color="#0085FF"/>
<stop offset="0.375" stop-color="#31475B"/>
<stop offset="1" stop-color="#57AEFF"/>
</radialGradient>
<radialGradient id="paint1_diamond_15_42" cx="0" cy="0" r="1" gradientUnits="userSpaceOnUse" gradientTransform="translate(198.455 48.0813) rotate(-2.83884) scale(16.2465 10.3701)">
<stop stop-color="#0085FF"/>
<stop offset="0.375" stop-color="#31475B"/>
<stop offset="1" stop-color="#57AEFF"/>
</radialGradient>
<radialGradient id="paint2_diamond_15_42" cx="0" cy="0" r="1" gradientUnits="userSpaceOnUse" gradientTransform="translate(167.051 64.6733) rotate(-6.56719) scale(9.08654 13.3218)">
<stop stop-color="#0085FF"/>
<stop offset="0.375" stop-color="#31475B"/>
<stop offset="1" stop-color="#57AEFF"/>
</radialGradient>
<radialGradient id="paint3_diamond_15_42" cx="0" cy="0" r="1" gradientUnits="userSpaceOnUse" gradientTransform="translate(163.133 48.0808) rotate(-2.83838) scale(16.2504 10.371)">
<stop stop-color="#0085FF"/>
<stop offset="0.375" stop-color="#31475B"/>
<stop offset="1" stop-color="#57AEFF"/>
</radialGradient>
<radialGradient id="paint4_diamond_15_42" cx="0" cy="0" r="1" gradientUnits="userSpaceOnUse" gradientTransform="translate(180.136 79.1262) rotate(-1.99852) scale(18.0655 8.12462)">
<stop stop-color="#0085FF"/>
<stop offset="0.375" stop-color="#31475B"/>
<stop offset="1" stop-color="#57AEFF"/>
</radialGradient>
<radialGradient id="paint5_diamond_15_42" cx="0" cy="0" r="1" gradientUnits="userSpaceOnUse" gradientTransform="translate(121.502 110.299) rotate(-10.279) scale(183.457 415.643)">
<stop stop-color="#0085FF"/>
<stop offset="0.375" stop-color="#31475B"/>
<stop offset="1" stop-color="#57AEFF"/>
</radialGradient>
<radialGradient id="paint6_diamond_15_42" cx="0" cy="0" r="1" gradientUnits="userSpaceOnUse" gradientTransform="translate(177.81 186.546) rotate(-6.56935) scale(24.6459 36.1451)">
<stop stop-color="#0085FF"/>
<stop offset="0.375" stop-color="#31475B"/>
<stop offset="1" stop-color="#57AEFF"/>
</radialGradient>
<radialGradient id="paint7_diamond_15_42" cx="0" cy="0" r="1" gradientUnits="userSpaceOnUse" gradientTransform="translate(160.476 65.0707) rotate(-2.47901) scale(73.1033 40.7633)">
<stop stop-color="#0085FF"/>
<stop offset="0.375" stop-color="#31475B"/>
<stop offset="1" stop-color="#57AEFF"/>
</radialGradient>
<radialGradient id="paint8_diamond_15_42" cx="0" cy="0" r="1" gradientUnits="userSpaceOnUse" gradientTransform="translate(77.3312 62.8953) rotate(-4.93002) scale(15.7397 17.3898)">
<stop stop-color="#0085FF"/>
<stop offset="0.375" stop-color="#31475B"/>
<stop offset="1" stop-color="#57AEFF"/>
</radialGradient>
<radialGradient id="paint9_diamond_15_42" cx="0" cy="0" r="1" gradientUnits="userSpaceOnUse" gradientTransform="translate(43.5857 62.8966) rotate(-4.93131) scale(15.7382 17.3927)">
<stop stop-color="#0085FF"/>
<stop offset="0.375" stop-color="#31475B"/>
<stop offset="1" stop-color="#57AEFF"/>
</radialGradient>
<radialGradient id="paint10_diamond_15_42" cx="0" cy="0" r="1" gradientUnits="userSpaceOnUse" gradientTransform="translate(77.9249 43.1241) rotate(-2.83884) scale(16.2465 10.3701)">
<stop stop-color="#0085FF"/>
<stop offset="0.375" stop-color="#31475B"/>
<stop offset="1" stop-color="#57AEFF"/>
</radialGradient>
<radialGradient id="paint11_diamond_15_42" cx="0" cy="0" r="1" gradientUnits="userSpaceOnUse" gradientTransform="translate(42.6026 43.1199) rotate(-2.83838) scale(16.2504 10.371)">
<stop stop-color="#0085FF"/>
<stop offset="0.375" stop-color="#31475B"/>
<stop offset="1" stop-color="#57AEFF"/>
</radialGradient>
<radialGradient id="paint12_diamond_15_42" cx="0" cy="0" r="1" gradientUnits="userSpaceOnUse" gradientTransform="translate(59.6067 79.1277) rotate(-1.9992) scale(18.0636 8.12652)">
<stop stop-color="#0085FF"/>
<stop offset="0.375" stop-color="#31475B"/>
<stop offset="1" stop-color="#57AEFF"/>
</radialGradient>
<radialGradient id="paint13_diamond_15_42" cx="0" cy="0" r="1" gradientUnits="userSpaceOnUse" gradientTransform="translate(57.2796 186.549) rotate(-6.56934) scale(24.6459 36.1451)">
<stop stop-color="#0085FF"/>
<stop offset="0.375" stop-color="#31475B"/>
<stop offset="1" stop-color="#57AEFF"/>
</radialGradient>
<radialGradient id="paint14_diamond_15_42" cx="0" cy="0" r="1" gradientUnits="userSpaceOnUse" gradientTransform="translate(36.0312 63.7299) rotate(-2.47972) scale(83.4367 46.5386)">
<stop stop-color="#0085FF"/>
<stop offset="0.375" stop-color="#31475B"/>
<stop offset="1" stop-color="#57AEFF"/>
</radialGradient>
<radialGradient id="paint15_diamond_15_42" cx="0" cy="0" r="1" gradientUnits="userSpaceOnUse" gradientTransform="translate(0.981738 110.298) rotate(-10.1906) scale(185.03 415.755)">
<stop stop-color="#0085FF"/>
<stop offset="0.375" stop-color="#31475B"/>
<stop offset="1" stop-color="#57AEFF"/>
</radialGradient>
</defs>
</svg>
